# Blender v2.93.1 OBJ File: ''
# www.blender.org
mtllib pooh.mtl
o Icosphere
v 1.099594 1.777319 0.874365
v 1.494268 2.135477 1.252342
v 1.331570 1.975634 -0.541575
v 2.028386 2.238327 1.418700
v 1.835281 1.968840 2.775648
v 1.026096 1.439228 -0.446929
v 1.000003 1.267564 1.405505
v 1.289350 1.697869 2.455691
v 2.429276 1.976974 2.243137
v 1.751586 1.966383 -1.633315
v 1.877501 2.246608 -0.221632
v 2.292671 1.988799 -1.403242
v 1.231882 1.053791 -1.472281
v 1.409325 1.550355 -1.920909
v 1.697843 1.022080 -2.358780
v 1.187487 0.761735 1.679279
v 1.077757 0.842283 0.026177
v 1.466830 0.412799 0.697019
v 1.679757 1.493819 3.465978
v 1.341013 1.100924 2.928820
v 1.918880 1.002955 3.541160
v 2.455371 2.148646 0.390690
v 2.003321 1.558490 -2.453448
v 1.492925 0.584471 -1.155427
v 1.629530 0.572646 2.490954
v 2.224358 1.539364 3.446493
v 2.734714 1.799711 -0.591566
v 2.844443 1.719163 1.061536
v 2.922198 1.293881 -0.317792
v 2.242444 1.067626 -2.378265
v 2.581188 1.460521 -1.841107
v 2.632851 0.863576 -1.367982
v 1.893815 0.323119 -0.330990
v 2.086920 0.592605 -1.687935
v 2.427933 0.425969 -0.164632
v 2.170615 0.595061 2.721027
v 2.044700 0.314837 1.309341
v 2.590631 0.585812 1.629284
v 2.690319 1.507653 2.559994
v 2.512875 1.011090 3.008621
v 2.896104 1.122218 1.534642
v 2.822607 0.784127 0.213345
vn -0.6691 0.7432 -0.0055
vn -0.2337 0.9595 0.1573
vn -0.8722 0.4834 -0.0752
vn -0.9806 0.1961 0.0044
vn -0.9394 0.3176 0.1287
vn 0.1807 0.9595 0.2163
vn 0.0437 0.9792 -0.1983
vn -0.8822 -0.1004 -0.4601
vn -0.7549 -0.6555 0.0182
vn -0.7234 -0.2541 0.6420
vn 0.4075 0.9088 0.0900
vn 0.1358 0.9031 -0.4074
vn -0.7010 -0.6236 -0.3461
vn -0.5742 -0.8092 0.1242
vn 0.0218 0.1617 0.9866
vn 0.9446 0.3248 -0.0469
vn 0.8904 -0.2329 -0.3911
vn 0.2337 -0.9595 -0.1573
vn 0.3680 -0.9178 0.1494
vn 0.9623 -0.1264 0.2407
vn 0.8722 -0.4834 0.0752
vn 0.8671 -0.4601 0.1908
vn 0.6517 -0.7137 0.2568
vn 0.6691 -0.7432 0.0055
vn 0.4243 -0.9045 0.0421
vn 0.1959 -0.9803 -0.0230
vn 0.7282 -0.6745 -0.1213
vn 0.5302 -0.8218 -0.2086
vn 0.5780 -0.7273 -0.3702
vn 0.9394 -0.3176 -0.1287
vn 0.9690 -0.0964 -0.2275
vn 0.9499 0.2519 -0.1851
vn 0.9806 -0.1961 -0.0044
vn 0.9942 0.1048 0.0237
vn 0.9747 0.1844 0.1263
vn 0.8822 0.1004 0.4601
vn 0.6494 -0.2427 0.7207
vn 0.4623 -0.7292 0.5046
vn -0.0437 -0.9792 0.1983
vn -0.2786 -0.9541 0.1103
vn -0.1790 -0.9838 0.0115
vn -0.1807 -0.9595 -0.2163
vn -0.3211 -0.8711 -0.3715
vn 0.0493 -0.8280 -0.5586
vn 0.7234 0.2541 -0.6420
vn 0.5825 0.6832 -0.4404
vn 0.7410 0.6195 -0.2592
vn 0.7549 0.6555 -0.0182
vn 0.6757 0.7331 0.0775
vn 0.8115 0.5612 0.1627
vn -0.1358 -0.9031 0.4074
vn -0.5825 -0.6832 0.4404
vn -0.7410 -0.6195 0.2592
vn -0.4075 -0.9088 -0.0900
vn -0.6757 -0.7331 -0.0775
vn -0.8115 -0.5612 -0.1627
vn -0.0218 -0.1617 -0.9866
vn -0.6494 0.2427 -0.7207
vn -0.4623 0.7292 -0.5046
vn 0.5742 0.8093 -0.1242
vn 0.2786 0.9541 -0.1103
vn 0.1790 0.9838 -0.0115
vn 0.7010 0.6236 0.3461
vn 0.3211 0.8711 0.3715
vn -0.0493 0.8280 0.5586
vn -0.8904 0.2329 0.3911
vn -0.9690 0.0964 0.2275
vn -0.9499 -0.2519 0.1851
vn -0.9446 -0.3248 0.0469
vn -0.9942 -0.1048 -0.0237
vn -0.9747 -0.1844 -0.1263
vn -0.9623 0.1264 -0.2407
vn -0.8671 0.4601 -0.1908
vn -0.6517 0.7137 -0.2568
vn -0.5780 0.7273 0.3702
vn -0.5302 0.8218 0.2086
vn -0.7282 0.6745 0.1213
vn -0.3680 0.9178 -0.1494
vn -0.4243 0.9045 -0.0421
vn -0.1959 0.9803 0.0230
usemtl Default_OBJ
s 1
f 1//1 2//1 3//1
f 4//2 2//2 5//2
f 1//3 3//3 6//3
f 1//4 6//4 7//4
f 1//5 7//5 8//5
f 4//6 5//6 9//6
f 10//7 11//7 12//7
f 13//8 14//8 15//8
f 16//9 17//9 18//9
f 19//10 20//10 21//10
f 4//11 9//11 22//11
f 10//12 12//12 23//12
f 13//13 15//13 24//13
f 16//14 18//14 25//14
f 19//15 21//15 26//15
f 27//16 28//16 29//16
f 30//17 31//17 32//17
f 33//18 34//18 35//18
f 36//19 37//19 38//19
f 39//20 40//20 41//20
f 41//21 38//21 42//21
f 41//22 40//22 38//22
f 40//23 36//23 38//23
f 38//24 35//24 42//24
f 38//25 37//25 35//25
f 37//26 33//26 35//26
f 35//27 32//27 42//27
f 35//28 34//28 32//28
f 34//29 30//29 32//29
f 32//30 29//30 42//30
f 32//31 31//31 29//31
f 31//32 27//32 29//32
f 29//33 41//33 42//33
f 29//34 28//34 41//34
f 28//35 39//35 41//35
f 26//36 40//36 39//36
f 26//37 21//37 40//37
f 21//38 36//38 40//38
f 25//39 37//39 36//39
f 25//40 18//40 37//40
f 18//41 33//41 37//41
f 24//42 34//42 33//42
f 24//43 15//43 34//43
f 15//44 30//44 34//44
f 23//45 31//45 30//45
f 23//46 12//46 31//46
f 12//47 27//47 31//47
f 22//48 28//48 27//48
f 22//49 9//49 28//49
f 9//50 39//50 28//50
f 21//51 25//51 36//51
f 21//52 20//52 25//52
f 20//53 16//53 25//53
f 18//54 24//54 33//54
f 18//55 17//55 24//55
f 17//56 13//56 24//56
f 15//57 23//57 30//57
f 15//58 14//58 23//58
f 14//59 10//59 23//59
f 12//60 22//60 27//60
f 12//61 11//61 22//61
f 11//62 4//62 22//62
f 9//63 26//63 39//63
f 9//64 5//64 26//64
f 5//65 19//65 26//65
f 8//66 20//66 19//66
f 8//67 7//67 20//67
f 7//68 16//68 20//68
f 7//69 17//69 16//69
f 7//70 6//70 17//70
f 6//71 13//71 17//71
f 6//72 14//72 13//72
f 6//73 3//73 14//73
f 3//74 10//74 14//74
f 5//75 8//75 19//75
f 5//76 2//76 8//76
f 2//77 1//77 8//77
f 3//78 11//78 10//78
f 3//79 2//79 11//79
f 2//80 4//80 11//80
